<?xml version="1.0" encoding="UTF-8" standalone="no"?>
<!-- Created with Inkscape (http://www.inkscape.org/) -->

<svg
   width="71.333359mm"
   height="10.57691mm"
   viewBox="0 0 71.333359 10.57691"
   version="1.1"
   id="svg1"
   xml:space="preserve"
   xmlns="http://www.w3.org/2000/svg"
   xmlns:svg="http://www.w3.org/2000/svg"><defs
     id="defs1" /><g
     id="layer1"
     transform="translate(-29.702347,-42.345918)"><g
       style="fill:#d87263"
       id="g1"
       transform="matrix(0.01322917,0,0,0.01322917,28.624147,53.987583)"><path
         d="m 478,-449 91,-55 91,55 -24,-104 80,-69 -105,-9 -42,-98 -42,98 -105,9 80,69 z m 205,251 h 123 q 0,21 -15.5,35.5 Q 775,-148 753,-146 L 213,-81 Q 188,-78 168.5,-92.5 149,-107 146,-132 L 82,-630 q -3,-25 12.07,-44.96 15.07,-19.97 39.93,-23.04 l 64,-7 v 61 l -57,6 65,498 z m -365,-60 q -24,0 -42,-18 -18,-18 -18,-42 v -502 q 0,-24 18,-42 18,-18 42,-18 h 502 q 24,0 42,18 18,18 18,42 v 502 q 0,24 -18,42 -18,18 -42,18 z m 0,-60 H 820 V -820 H 318 Z m 251,-251 z m -363,429 z"
         id="path1" /></g><text
       xml:space="preserve"
       style="font-size:10.5833px;text-align:start;writing-mode:lr-tb;direction:ltr;text-anchor:start;fill:#000000;stroke-width:0.264583"
       x="43.272038"
       y="51.030983"
       id="text1"><tspan
         id="tspan1"
         style="font-style:normal;font-variant:normal;font-weight:600;font-stretch:normal;font-size:10.5833px;font-family:Trirong;-inkscape-font-specification:'Trirong Semi-Bold';fill:#545454;fill-opacity:1;stroke-width:0.264583"
         x="43.272038"
         y="51.030983">balansi.me</tspan></text></g></svg>
